<?xml version="1.0" encoding="UTF-8" standalone="no"?>
<svg version="1.1" xmlns="http://www.w3.org/2000/svg" xmlns:xlink="http://www.w3.org/1999/xlink" xmlns:i="http://ns.adobe.com/AdobeIllustrator/10.0/" width="121" height="143">
	<path id="dp_path001" transform="matrix(1,0,0,1,-304.405,-717.957)" fill="white" fill-rule="evenodd" d="M 424.004,717.863 L 424.029,717.845 L 424.059,717.832 L 424.089,717.821 L 424.123,717.815 L 424.157,717.811 L 424.195,717.811 L 424.272,717.817 L 424.353,717.836 L 424.436,717.864 L 424.519,717.901 L 424.599,717.947 L 424.675,717.999 L 424.745,718.056 L 424.807,718.117 L 424.859,718.184 L 424.88,718.217 L 424.899,718.252 L 424.913,718.287 L 424.924,718.323 L 424.931,718.357 L 424.933,718.392 L 424.931,718.428 L 424.924,718.463 L 424.859,718.687 L 424.78,718.935 L 424.685,719.204 L 424.579,719.496 L 424.459,719.807 L 424.327,720.137 L 424.183,720.484 L 424.029,720.848 L 423.693,721.621 L 423.324,722.448 L 422.928,723.317 L 422.512,724.22 L 421.637,726.091 L 420.751,727.987 L 420.316,728.923 L 419.896,729.836 L 419.497,730.719 L 419.124,731.563 L 414.191,742.877 L 407.56,758.103 L 404.321,765.553 L 401.512,772.028 L 400.357,774.696 L 399.417,776.875 L 398.728,778.484 L 398.324,779.443 L 398.281,779.559 L 398.247,779.676 L 398.219,779.796 L 398.199,779.917 L 398.184,780.04 L 398.176,780.164 L 398.172,780.289 L 398.173,780.415 L 398.179,780.541 L 398.187,780.668 L 398.209,780.921 L 398.264,781.423 L 398.285,781.604 L 398.312,781.797 L 398.381,782.217 L 398.464,782.671 L 398.556,783.145 L 398.744,784.111 L 398.831,784.58 L 398.904,785.023 L 399.027,785.825 L 399.087,786.227 L 399.143,786.629 L 399.195,787.031 L 399.24,787.435 L 399.277,787.839 L 399.305,788.243 L 399.335,788.801 L 399.363,789.415 L 399.388,790.071 L 399.407,790.751 L 399.416,791.443 L 399.417,791.787 L 399.415,792.128 L 399.409,792.465 L 399.4,792.795 L 399.387,793.115 L 399.369,793.425 L 399.348,793.712 L 399.323,794 L 399.293,794.289 L 399.26,794.577 L 399.224,794.867 L 399.184,795.155 L 399.096,795.731 L 398.997,796.301 L 398.892,796.865 L 398.78,797.423 L 398.665,797.968 L 398.551,798.487 L 398.427,799.005 L 398.296,799.521 L 398.157,800.035 L 398.009,800.545 L 397.853,801.055 L 397.688,801.56 L 397.515,802.063 L 397.408,802.355 L 397.295,802.656 L 397.047,803.284 L 396.779,803.935 L 396.499,804.597 L 396.215,805.259 L 395.931,805.907 L 395.403,807.116 L 395.347,807.24 L 395.285,807.364 L 395.22,807.488 L 395.151,807.609 L 395.005,807.853 L 394.849,808.096 L 394.527,808.577 L 394.365,808.819 L 394.211,809.06 L 394.064,809.303 L 393.996,809.424 L 393.931,809.547 L 393.871,809.671 L 393.815,809.795 L 393.764,809.919 L 393.717,810.044 L 393.679,810.169 L 393.645,810.297 L 393.619,810.425 L 393.599,810.555 L 393.588,810.684 L 393.584,810.816 L 393.589,810.948 L 393.604,811.083 L 393.645,811.344 L 393.699,811.623 L 393.761,811.915 L 393.835,812.22 L 393.916,812.54 L 394.008,812.872 L 394.107,813.215 L 394.213,813.569 L 394.328,813.935 L 394.449,814.308 L 394.708,815.081 L 394.988,815.883 L 395.284,816.707 L 395.591,817.547 L 395.905,818.396 L 396.54,820.103 L 396.851,820.947 L 397.152,821.776 L 397.439,822.585 L 397.707,823.368 L 399.581,828.937 L 401.864,835.715 L 404.028,842.137 L 405.544,846.643 L 405.588,846.764 L 405.637,846.893 L 405.74,847.156 L 405.783,847.281 L 405.813,847.397 L 405.824,847.451 L 405.829,847.5 L 405.829,847.544 L 405.824,847.583 L 405.812,847.617 L 405.795,847.652 L 405.771,847.684 L 405.743,847.715 L 405.709,847.743 L 405.673,847.768 L 405.635,847.791 L 405.593,847.811 L 405.551,847.827 L 405.508,847.839 L 405.467,847.845 L 405.425,847.848 L 405.385,847.845 L 405.348,847.837 L 405.313,847.823 L 405.284,847.803 L 404.773,847.364 L 404.16,846.829 L 403.455,846.208 L 402.671,845.512 L 400.911,843.939 L 398.969,842.192 L 396.94,840.36 L 394.915,838.528 L 391.244,835.204 L 389.687,833.789 L 388.023,832.271 L 384.637,829.169 L 381.6,826.384 L 380.372,825.263 L 379.424,824.403 L 379.337,824.319 L 379.249,824.231 L 379.161,824.141 L 379.071,824.057 L 379.023,824.017 L 378.975,823.981 L 378.925,823.949 L 378.873,823.921 L 378.819,823.897 L 378.763,823.88 L 378.705,823.868 L 378.644,823.863 L 378.599,823.863 L 378.551,823.867 L 378.449,823.883 L 378.341,823.911 L 378.227,823.948 L 378.105,823.993 L 377.979,824.045 L 377.715,824.165 L 377.441,824.296 L 377.164,824.427 L 377.025,824.488 L 376.889,824.545 L 376.755,824.597 L 376.624,824.643 L 375.449,825.025 L 374.741,825.255 L 373.983,825.495 L 373.199,825.732 L 372.804,825.848 L 372.412,825.957 L 372.024,826.061 L 371.645,826.159 L 371.277,826.245 L 370.924,826.323 L 370.593,826.389 L 370.26,826.452 L 369.925,826.511 L 369.589,826.567 L 369.253,826.617 L 368.916,826.665 L 368.577,826.709 L 368.24,826.749 L 367.903,826.785 L 367.565,826.817 L 367.228,826.845 L 366.892,826.869 L 366.557,826.889 L 366.225,826.905 L 365.893,826.916 L 365.564,826.923 L 365.239,826.924 L 364.911,826.919 L 364.579,826.908 L 364.245,826.892 L 363.911,826.872 L 363.576,826.847 L 363.241,826.817 L 362.909,826.785 L 362.253,826.713 L 361.615,826.632 L 361.003,826.548 L 360.424,826.463 L 360.176,826.424 L 359.92,826.38 L 359.389,826.28 L 358.848,826.167 L 358.315,826.045 L 357.807,825.923 L 357.34,825.8 L 356.933,825.685 L 356.759,825.632 L 356.604,825.583 L 356.493,825.543 L 356.376,825.497 L 356.131,825.401 L 356.008,825.357 L 355.888,825.321 L 355.775,825.296 L 355.721,825.289 L 355.671,825.287 L 355.581,825.291 L 355.493,825.304 L 355.404,825.327 L 355.319,825.359 L 355.236,825.399 L 355.159,825.445 L 355.088,825.501 L 355.024,825.563 L 354.34,826.319 L 353.509,827.241 L 351.481,829.509 L 349.077,832.207 L 346.437,835.176 L 341.003,841.293 L 338.484,844.125 L 336.285,846.593 L 332.7,850.617 L 328.913,854.871 L 327.131,856.867 L 325.523,858.661 L 324.161,860.169 L 323.597,860.788 L 323.124,861.303 L 323.103,861.321 L 323.079,861.337 L 323.051,861.349 L 323.021,861.359 L 322.991,861.364 L 322.959,861.367 L 322.892,861.365 L 322.825,861.353 L 322.763,861.335 L 322.708,861.311 L 322.664,861.283 L 322.629,861.247 L 322.597,861.199 L 322.571,861.141 L 322.549,861.079 L 322.535,861.013 L 322.529,860.947 L 322.532,860.883 L 322.544,860.823 L 323.113,859.048 L 323.843,856.789 L 325.691,851.095 L 327.905,844.291 L 330.303,836.932 L 332.701,829.569 L 334.919,822.759 L 336.771,817.052 L 337.503,814.785 L 338.076,813.003 L 338.101,812.909 L 338.119,812.815 L 338.129,812.717 L 338.133,812.62 L 338.129,812.521 L 338.119,812.424 L 338.1,812.329 L 338.076,812.236 L 338.059,812.184 L 338.036,812.131 L 337.984,812.021 L 337.923,811.909 L 337.853,811.796 L 337.705,811.568 L 337.632,811.455 L 337.564,811.343 L 337.449,811.151 L 337.316,810.932 L 337.001,810.428 L 336.639,809.848 L 336.245,809.215 L 335.841,808.547 L 335.641,808.207 L 335.445,807.865 L 335.255,807.525 L 335.075,807.191 L 334.905,806.861 L 334.749,806.541 L 334.601,806.219 L 334.453,805.884 L 334.305,805.537 L 334.16,805.183 L 334.017,804.821 L 333.877,804.459 L 333.741,804.096 L 333.611,803.736 L 333.484,803.383 L 333.365,803.036 L 333.253,802.7 L 333.148,802.379 L 333.053,802.073 L 332.967,801.787 L 332.889,801.523 L 332.824,801.283 L 332.752,800.996 L 332.689,800.723 L 332.577,800.223 L 332.521,799.999 L 332.461,799.792 L 332.429,799.696 L 332.395,799.605 L 332.357,799.52 L 332.317,799.44 L 332.248,799.324 L 332.209,799.267 L 332.167,799.211 L 332.121,799.157 L 332.073,799.104 L 332.024,799.055 L 331.971,799.008 L 331.916,798.964 L 331.86,798.925 L 331.801,798.889 L 331.74,798.86 L 331.679,798.836 L 331.616,798.817 L 331.552,798.805 L 331.487,798.8 L 331.016,798.791 L 330.473,798.784 L 329.192,798.775 L 327.679,798.772 L 325.975,798.773 L 322.147,798.788 L 318.013,798.809 L 313.885,798.829 L 311.919,798.836 L 310.069,798.84 L 308.376,798.84 L 306.877,798.833 L 305.611,798.82 L 305.076,798.811 L 304.615,798.8 L 304.585,798.797 L 304.556,798.792 L 304.528,798.783 L 304.5,798.771 L 304.448,798.74 L 304.401,798.699 L 304.36,798.649 L 304.323,798.593 L 304.292,798.532 L 304.269,798.465 L 304.252,798.397 L 304.244,798.328 L 304.243,798.259 L 304.252,798.191 L 304.269,798.127 L 304.297,798.065 L 304.315,798.037 L 304.335,798.011 L 304.359,797.985 L 304.384,797.963 L 304.624,797.775 L 304.916,797.559 L 305.252,797.315 L 305.629,797.048 L 306.481,796.455 L 307.431,795.804 L 308.435,795.117 L 309.449,794.419 L 310.433,793.733 L 310.9,793.401 L 311.344,793.083 L 316.269,789.516 L 319.399,787.248 L 322.692,784.853 L 324.335,783.655 L 325.94,782.479 L 327.481,781.347 L 328.932,780.275 L 330.265,779.281 L 331.456,778.387 L 332.477,777.607 L 332.917,777.267 L 333.304,776.963 L 333.361,776.915 L 333.416,776.864 L 333.468,776.812 L 333.516,776.757 L 333.563,776.7 L 333.607,776.641 L 333.688,776.517 L 333.763,776.388 L 333.829,776.253 L 333.891,776.115 L 333.947,775.971 L 334,775.825 L 334.051,775.677 L 334.149,775.381 L 334.251,775.088 L 334.307,774.945 L 334.365,774.807 L 334.611,774.272 L 334.855,773.761 L 335.097,773.268 L 335.343,772.788 L 335.592,772.319 L 335.848,771.853 L 336.111,771.389 L 336.384,770.923 L 336.725,770.353 L 337.077,769.783 L 337.437,769.213 L 337.808,768.647 L 338.189,768.083 L 338.384,767.803 L 338.583,767.523 L 338.783,767.245 L 338.987,766.969 L 339.193,766.695 L 339.404,766.423 L 339.787,765.935 L 340.172,765.451 L 340.565,764.969 L 340.764,764.732 L 340.965,764.496 L 341.169,764.263 L 341.376,764.032 L 341.585,763.804 L 341.797,763.579 L 342.013,763.357 L 342.232,763.139 L 342.456,762.924 L 342.683,762.715 L 342.957,762.471 L 343.255,762.213 L 343.569,761.948 L 343.9,761.676 L 344.243,761.4 L 344.592,761.123 L 344.948,760.845 L 345.305,760.573 L 345.66,760.305 L 346.011,760.047 L 346.351,759.799 L 346.68,759.564 L 346.995,759.345 L 347.289,759.145 L 347.563,758.967 L 347.809,758.811 L 347.947,758.729 L 348.085,758.652 L 348.367,758.507 L 348.645,758.369 L 348.917,758.233 L 349.047,758.164 L 349.172,758.093 L 349.293,758.02 L 349.407,757.944 L 349.513,757.864 L 349.613,757.78 L 349.703,757.691 L 349.784,757.596 L 349.855,757.496 L 349.916,757.391 L 349.969,757.281 L 350.015,757.169 L 350.055,757.052 L 350.087,756.932 L 350.115,756.811 L 350.137,756.687 L 350.156,756.561 L 350.171,756.435 L 350.195,756.179 L 350.213,755.925 L 350.232,755.676 L 350.305,754.807 L 350.389,753.749 L 350.585,751.173 L 350.809,748.143 L 351.048,744.853 L 351.525,738.277 L 351.74,735.38 L 351.924,733.003 L 352.035,731.669 L 352.157,730.244 L 352.288,728.783 L 352.421,727.34 L 352.668,724.731 L 352.855,722.855 L 352.867,722.753 L 352.883,722.647 L 352.903,722.539 L 352.925,722.432 L 352.951,722.331 L 352.98,722.24 L 353.011,722.163 L 353.044,722.103 L 353.059,722.085 L 353.075,722.071 L 353.115,722.047 L 353.16,722.031 L 353.211,722.024 L 353.263,722.024 L 353.313,722.031 L 353.361,722.044 L 353.404,722.063 L 353.453,722.096 L 353.507,722.141 L 353.561,722.197 L 353.616,722.259 L 353.669,722.327 L 353.721,722.396 L 353.815,722.535 L 355.884,725.861 L 358.823,730.605 L 360.423,733.196 L 362.005,735.767 L 363.492,738.189 L 364.804,740.343 L 365.336,741.224 L 365.888,742.147 L 367.032,744.08 L 368.199,746.065 L 369.347,748.027 L 370.441,749.891 L 371.441,751.581 L 371.895,752.339 L 372.311,753.024 L 372.684,753.628 L 373.009,754.141 L 373.073,754.233 L 373.143,754.323 L 373.219,754.409 L 373.299,754.493 L 373.383,754.575 L 373.472,754.652 L 373.563,754.727 L 373.657,754.797 L 373.752,754.865 L 373.849,754.929 L 373.947,754.989 L 374.044,755.045 L 374.14,755.097 L 374.235,755.145 L 374.417,755.229 L 374.588,755.297 L 374.767,755.359 L 374.859,755.385 L 374.952,755.408 L 375.045,755.428 L 375.139,755.443 L 375.232,755.453 L 375.325,755.457 L 375.417,755.457 L 375.507,755.449 L 375.596,755.435 L 375.681,755.412 L 375.764,755.381 L 375.844,755.343 L 376.047,755.223 L 376.272,755.079 L 376.519,754.912 L 376.783,754.724 L 377.063,754.52 L 377.357,754.3 L 377.975,753.825 L 378.617,753.323 L 379.265,752.809 L 379.897,752.308 L 380.496,751.839 L 382.264,750.461 L 384.42,748.775 L 389.545,744.759 L 395.151,740.364 L 397.911,738.203 L 400.52,736.163 L 403.475,733.859 L 406.78,731.284 L 413.732,725.876 L 419.949,721.036 L 422.336,719.172 Z M 385.508,788.491 L 385.476,789.148 L 385.437,789.757 L 385.392,790.328 L 385.337,790.871 L 385.307,791.133 L 385.273,791.392 L 385.236,791.649 L 385.197,791.903 L 385.155,792.157 L 385.109,792.412 L 385.06,792.668 L 385.007,792.927 L 384.903,793.409 L 384.8,793.868 L 384.696,794.304 L 384.588,794.721 L 384.475,795.125 L 384.355,795.519 L 384.223,795.905 L 384.153,796.097 L 384.08,796.289 L 384.004,796.48 L 383.924,796.673 L 383.84,796.867 L 383.751,797.061 L 383.659,797.259 L 383.56,797.459 L 383.457,797.661 L 383.349,797.868 L 383.116,798.292 L 382.859,798.737 L 382.575,799.204 L 382.261,799.699 L 382.12,799.915 L 381.968,800.135 L 381.808,800.361 L 381.637,800.591 L 381.459,800.824 L 381.271,801.06 L 381.073,801.299 L 380.868,801.54 L 380.652,801.783 L 380.428,802.025 L 380.196,802.269 L 379.955,802.513 L 379.705,802.757 L 379.447,803 L 379.18,803.241 L 378.905,803.481 L 378.672,803.679 L 378.436,803.872 L 378.197,804.061 L 377.956,804.247 L 377.709,804.431 L 377.457,804.611 L 377.199,804.787 L 376.933,804.961 L 376.66,805.133 L 376.379,805.304 L 376.087,805.472 L 375.784,805.637 L 375.471,805.803 L 375.144,805.965 L 374.805,806.127 L 374.452,806.288 L 374.328,806.341 L 374.2,806.393 L 373.935,806.492 L 373.659,806.581 L 373.372,806.665 L 373.077,806.741 L 372.776,806.811 L 372.469,806.873 L 372.159,806.928 L 371.844,806.977 L 371.529,807.02 L 371.215,807.055 L 370.901,807.085 L 370.591,807.108 L 370.284,807.125 L 369.984,807.137 L 369.692,807.143 L 369.453,807.144 L 369.213,807.141 L 368.975,807.136 L 368.735,807.127 L 368.496,807.115 L 368.257,807.1 L 368.019,807.083 L 367.78,807.063 L 367.543,807.039 L 367.307,807.012 L 367.071,806.983 L 366.837,806.951 L 366.604,806.915 L 366.372,806.877 L 366.143,806.836 L 365.915,806.793 L 365.688,806.747 L 365.464,806.697 L 365.241,806.645 L 365.021,806.591 L 364.804,806.535 L 364.589,806.475 L 364.377,806.412 L 364.168,806.347 L 363.961,806.28 L 363.759,806.209 L 363.559,806.137 L 363.363,806.063 L 363.169,805.985 L 362.981,805.905 L 362.796,805.823 L 362.615,805.739 L 362.335,805.601 L 362.057,805.457 L 361.78,805.307 L 361.507,805.149 L 361.233,804.987 L 360.963,804.816 L 360.693,804.639 L 360.425,804.455 L 360.16,804.264 L 359.895,804.065 L 359.632,803.86 L 359.369,803.647 L 359.109,803.427 L 358.849,803.199 L 358.592,802.963 L 358.335,802.72 L 358.079,802.468 L 357.824,802.209 L 357.571,801.941 L 357.317,801.665 L 357.065,801.381 L 356.815,801.089 L 356.565,800.788 L 356.315,800.477 L 356.067,800.159 L 355.819,799.832 L 355.571,799.495 L 355.324,799.149 L 355.077,798.795 L 354.831,798.431 L 354.585,798.057 L 354.34,797.675 L 357.572,795.467 L 357.677,795.692 L 357.787,795.913 L 357.9,796.129 L 358.019,796.341 L 358.14,796.551 L 358.265,796.755 L 358.395,796.956 L 358.527,797.155 L 358.663,797.349 L 358.801,797.543 L 358.943,797.733 L 359.087,797.921 L 359.383,798.295 L 359.687,798.661 L 359.935,798.948 L 360.189,799.228 L 360.453,799.504 L 360.727,799.775 L 361.009,800.04 L 361.303,800.3 L 361.605,800.553 L 361.92,800.801 L 362.081,800.923 L 362.247,801.043 L 362.415,801.16 L 362.585,801.277 L 362.759,801.392 L 362.936,801.505 L 363.117,801.616 L 363.3,801.727 L 363.488,801.835 L 363.679,801.94 L 363.873,802.045 L 364.071,802.147 L 364.272,802.248 L 364.477,802.347 L 364.687,802.444 L 364.9,802.539 L 365.136,802.637 L 365.379,802.728 L 365.625,802.812 L 365.877,802.889 L 366.133,802.959 L 366.395,803.021 L 366.659,803.076 L 366.925,803.124 L 367.196,803.165 L 367.469,803.2 L 367.745,803.228 L 368.023,803.248 L 368.303,803.261 L 368.583,803.268 L 368.865,803.268 L 369.148,803.261 L 369.431,803.248 L 369.713,803.227 L 369.995,803.2 L 370.277,803.167 L 370.557,803.127 L 370.836,803.08 L 371.113,803.027 L 371.389,802.967 L 371.661,802.901 L 371.932,802.828 L 372.199,802.749 L 372.463,802.664 L 372.721,802.573 L 372.977,802.475 L 373.228,802.372 L 373.475,802.261 L 373.72,802.144 L 373.953,802.025 L 374.177,801.904 L 374.392,801.783 L 374.597,801.66 L 374.796,801.536 L 374.985,801.411 L 375.169,801.285 L 375.347,801.16 L 375.517,801.033 L 375.847,800.783 L 376.161,800.533 L 376.467,800.287 L 376.632,800.151 L 376.795,800.011 L 376.956,799.868 L 377.115,799.721 L 377.271,799.572 L 377.425,799.419 L 377.576,799.261 L 377.725,799.101 L 377.872,798.939 L 378.015,798.772 L 378.156,798.601 L 378.293,798.429 L 378.428,798.252 L 378.559,798.073 L 378.687,797.891 L 378.812,797.705 L 378.985,797.435 L 379.153,797.163 L 379.313,796.887 L 379.469,796.609 L 379.617,796.329 L 379.761,796.049 L 379.897,795.767 L 380.029,795.484 L 380.155,795.201 L 380.273,794.917 L 380.388,794.635 L 380.496,794.353 L 380.599,794.072 L 380.697,793.792 L 380.789,793.513 L 380.876,793.237 L 380.957,792.963 L 381.035,792.691 L 381.105,792.423 L 381.172,792.159 L 381.235,791.897 L 381.291,791.64 L 381.343,791.387 L 381.391,791.139 L 381.433,790.896 L 381.471,790.659 L 381.504,790.427 L 381.533,790.201 L 381.559,789.983 L 381.579,789.771 L 381.596,789.565 L 381.608,789.368 L 381.624,789.151 L 381.651,788.884 L 381.7,788.395 L 382.908,788.408 Z M 382.489,765.507 L 382.181,765.244 L 381.88,764.992 L 381.319,764.532 L 380.855,764.16 L 380.424,763.823 L 380.291,763.72 L 380.145,763.612 L 379.824,763.383 L 379.463,763.14 L 379.067,762.887 L 378.641,762.624 L 378.192,762.356 L 377.723,762.087 L 377.24,761.817 L 376.747,761.552 L 376.249,761.295 L 375.752,761.047 L 375.26,760.812 L 374.779,760.592 L 374.543,760.489 L 374.312,760.393 L 374.085,760.301 L 373.865,760.215 L 373.651,760.136 L 373.444,760.063 L 373.099,759.941 L 372.719,759.812 L 372.243,759.657 L 371.707,759.492 L 371.425,759.411 L 371.143,759.332 L 370.86,759.257 L 370.584,759.189 L 370.317,759.131 L 370.064,759.083 L 369.681,759.024 L 368.737,758.885 L 368.151,758.804 L 367.537,758.725 L 366.935,758.656 L 366.651,758.627 L 366.384,758.603 L 366.117,758.583 L 365.861,758.567 L 365.615,758.555 L 365.373,758.547 L 365.137,758.544 L 364.903,758.544 L 364.669,758.549 L 364.435,758.56 L 364.197,758.575 L 363.953,758.593 L 363.703,758.616 L 363.444,758.644 L 362.889,758.713 L 362.275,758.8 L 361.848,758.888 L 361.385,758.987 L 360.819,759.112 L 360.193,759.257 L 359.875,759.336 L 359.559,759.416 L 359.252,759.497 L 358.96,759.58 L 358.689,759.661 L 358.444,759.743 L 358.216,759.815 L 357.956,759.9 L 357.617,760.017 L 357.217,760.163 L 356.772,760.333 L 356.536,760.427 L 356.295,760.527 L 356.051,760.632 L 355.804,760.743 L 355.449,760.908 L 355.1,761.08 L 354.76,761.253 L 354.439,761.424 L 354.139,761.591 L 353.869,761.748 L 353.636,761.893 L 353.444,762.023 L 352.951,762.38 L 352.485,762.731 L 352.045,763.073 L 351.629,763.412 L 351.236,763.747 L 350.861,764.079 L 350.505,764.411 L 350.164,764.743 L 349.748,765.164 L 349.352,765.575 L 348.981,765.968 L 348.644,766.336 L 348.347,766.669 L 348.097,766.96 L 347.9,767.2 L 347.824,767.3 L 347.764,767.383 L 347.624,767.581 L 347.46,767.821 L 347.244,768.147 L 346.981,768.549 L 346.683,769.027 L 346.352,769.571 L 346.177,769.865 L 345.999,770.175 L 345.816,770.497 L 345.631,770.833 L 345.443,771.18 L 345.253,771.54 L 345.064,771.909 L 344.876,772.288 L 344.689,772.677 L 344.505,773.073 L 344.324,773.477 L 344.148,773.888 L 343.977,774.305 L 343.812,774.727 L 343.655,775.153 L 343.507,775.583 L 343.367,776.016 L 343.236,776.451 L 343.136,776.769 L 343.039,777.089 L 342.945,777.411 L 342.855,777.732 L 342.767,778.056 L 342.683,778.38 L 342.601,778.705 L 342.523,779.032 L 342.448,779.359 L 342.376,779.687 L 342.308,780.016 L 342.243,780.345 L 342.18,780.675 L 342.121,781.005 L 342.065,781.337 L 342.013,781.669 L 341.983,781.916 L 341.952,782.235 L 341.924,782.616 L 341.897,783.049 L 341.872,783.525 L 341.851,784.032 L 341.831,784.56 L 341.815,785.1 L 341.801,785.64 L 341.792,786.171 L 341.785,786.681 L 341.784,787.163 L 341.787,787.604 L 341.795,787.995 L 341.807,788.324 L 341.824,788.583 L 341.86,788.947 L 341.901,789.307 L 341.947,789.665 L 341.996,790.023 L 342.049,790.377 L 342.105,790.732 L 342.224,791.443 L 342.329,792.036 L 342.443,792.623 L 342.564,793.203 L 342.628,793.491 L 342.696,793.779 L 342.767,794.064 L 342.84,794.351 L 342.917,794.636 L 342.999,794.921 L 343.083,795.207 L 343.172,795.491 L 343.265,795.777 L 343.364,796.063 L 343.575,796.659 L 343.791,797.251 L 344.011,797.84 L 344.235,798.425 L 344.467,799.008 L 344.705,799.587 L 344.952,800.161 L 345.208,800.733 L 345.475,801.3 L 345.611,801.581 L 345.751,801.863 L 345.893,802.143 L 346.039,802.421 L 346.188,802.699 L 346.34,802.975 L 346.495,803.249 L 346.653,803.524 L 346.816,803.797 L 346.981,804.068 L 347.151,804.339 L 347.325,804.608 L 347.503,804.876 L 347.684,805.143 L 348.492,806.167 L 349.804,807.823 L 349.963,808.019 L 350.137,808.229 L 350.523,808.681 L 350.928,809.147 L 351.327,809.596 L 351.981,810.324 L 352.252,810.621 L 352.672,810.999 L 353.085,811.361 L 353.492,811.708 L 353.893,812.041 L 354.288,812.36 L 354.677,812.667 L 355.061,812.961 L 355.44,813.244 L 355.813,813.516 L 356.183,813.779 L 356.548,814.032 L 356.911,814.276 L 357.268,814.513 L 357.623,814.743 L 357.975,814.965 L 358.324,815.183 L 358.756,815.404 L 359.227,815.643 L 359.809,815.929 L 360.457,816.239 L 360.792,816.395 L 361.125,816.545 L 361.453,816.689 L 361.769,816.823 L 362.068,816.941 L 362.344,817.043 L 362.607,817.132 L 362.872,817.217 L 363.139,817.299 L 363.407,817.376 L 363.677,817.448 L 363.949,817.517 L 364.223,817.583 L 364.497,817.643 L 364.773,817.7 L 365.051,817.755 L 365.329,817.804 L 365.611,817.851 L 365.892,817.893 L 366.175,817.933 L 366.459,817.969 L 366.744,818.003 L 367.356,818.069 L 367.953,818.132 L 368.539,818.188 L 368.828,818.212 L 369.115,818.232 L 369.401,818.249 L 369.687,818.263 L 369.971,818.273 L 370.255,818.277 L 370.54,818.277 L 370.825,818.272 L 371.111,818.261 L 371.399,818.244 L 371.831,818.209 L 372.259,818.168 L 372.683,818.12 L 373.104,818.064 L 373.523,818 L 373.937,817.931 L 374.348,817.853 L 374.756,817.769 L 375.16,817.677 L 375.56,817.58 L 375.957,817.475 L 376.351,817.364 L 376.741,817.245 L 377.127,817.121 L 377.509,816.989 L 377.888,816.852 L 378.176,816.741 L 378.461,816.625 L 378.747,816.505 L 379.031,816.38 L 379.313,816.249 L 379.593,816.115 L 379.872,815.976 L 380.148,815.832 L 380.421,815.685 L 380.692,815.535 L 380.959,815.38 L 381.224,815.223 L 381.484,815.061 L 381.741,814.899 L 381.995,814.732 L 382.244,814.563 L 382.469,814.405 L 382.692,814.245 L 382.912,814.084 L 383.131,813.92 L 383.347,813.753 L 383.56,813.585 L 383.771,813.415 L 383.98,813.243 L 384.392,812.891 L 384.796,812.529 L 385.193,812.16 L 385.584,811.783 L 385.875,811.489 L 386.161,811.187 L 386.445,810.876 L 386.724,810.559 L 386.999,810.237 L 387.267,809.913 L 387.529,809.588 L 387.784,809.263 L 388.108,808.837 L 388.423,808.408 L 388.728,807.975 L 389.024,807.536 L 389.311,807.092 L 389.588,806.643 L 389.855,806.187 L 390.113,805.725 L 390.361,805.256 L 390.601,804.78 L 390.831,804.295 L 391.052,803.803 L 391.263,803.301 L 391.465,802.791 L 391.659,802.271 L 391.843,801.741 L 392.031,801.167 L 392.212,800.581 L 392.385,799.989 L 392.468,799.691 L 392.548,799.391 L 392.624,799.088 L 392.697,798.785 L 392.768,798.48 L 392.835,798.175 L 392.899,797.868 L 392.957,797.56 L 393.013,797.252 L 393.064,796.943 L 393.147,796.404 L 393.227,795.86 L 393.301,795.312 L 393.368,794.76 L 393.425,794.204 L 393.449,793.925 L 393.472,793.645 L 393.489,793.365 L 393.505,793.085 L 393.516,792.804 L 393.524,792.523 L 393.529,792.036 L 393.528,791.548 L 393.519,791.059 L 393.501,790.567 L 393.477,790.073 L 393.447,789.579 L 393.408,789.081 L 393.364,788.583 L 393.289,787.848 L 393.208,787.121 L 393.116,786.4 L 393.015,785.685 L 392.96,785.329 L 392.901,784.973 L 392.84,784.62 L 392.776,784.267 L 392.708,783.915 L 392.637,783.564 L 392.563,783.213 L 392.484,782.863 L 392.421,782.597 L 392.355,782.333 L 392.284,782.068 L 392.211,781.801 L 392.056,781.272 L 391.893,780.744 L 391.724,780.219 L 391.551,779.7 L 391.204,778.683 L 391.009,778.212 L 390.533,777.075 L 390.237,776.383 L 389.932,775.677 L 389.633,775.009 L 389.495,774.705 L 389.364,774.429 L 389.059,773.865 L 388.761,773.333 L 388.471,772.831 L 388.188,772.356 L 387.911,771.907 L 387.64,771.481 L 387.373,771.079 L 387.112,770.696 L 386.855,770.332 L 386.599,769.985 L 386.347,769.652 L 386.097,769.332 L 385.848,769.023 L 385.6,768.723 L 385.352,768.429 L 385.104,768.143 L 384.104,767.043 L 384.004,766.929 L 383.893,766.813 L 383.652,766.567 L 383.384,766.309 L 383.097,766.044 L 382.797,765.775 Z "/>
</svg>